<?xml version="1.0" encoding="UTF-8" standalone="no"?><!DOCTYPE svg PUBLIC "-//W3C//DTD SVG 1.1//EN" "http://www.w3.org/Graphics/SVG/1.1/DTD/svg11.dtd"><svg width="100%" height="100%" viewBox="0 0 512 512" version="1.1" xmlns="http://www.w3.org/2000/svg" xmlns:xlink="http://www.w3.org/1999/xlink" xml:space="preserve" xmlns:serif="http://www.serif.com/" style="fill-rule:evenodd;clip-rule:evenodd;stroke-linejoin:round;stroke-miterlimit:2;"><g id="kiss"><path id="btm_R" d="M256,272l0,176c0,0 75.942,9.815 168,-72c71.902,-63.902 88,-104 88,-104l-256,-0Z" style="fill:#c98273;"/><path id="btm_L" d="M256,272l0,176c0,0 -75.942,9.815 -168,-72c-71.902,-63.902 -88,-104 -88,-104l256,-0Z" style="fill:#d38f7b;"/><path id="top_R" d="M256,136l0,136l256,0c0,0 -128.333,-164 -192,-164c-32.042,0 -52.031,15.922 -64,28Z" style="fill:#ad6d62;"/><path id="top_L" d="M256,136l0,136l-256,0c0,0 128.333,-164 192,-164c32.042,0 52.031,15.922 64,28Z" style="fill:#9e6663;"/></g></svg>